# Blender v2.79 (sub 0) OBJ File: 'research_table.blend'
# www.blender.org
mtllib research_station.mtl
v 0.561058 0.877492 0.935483
v 0.561058 0.939992 0.935483
v 0.561058 0.877492 0.435483
v 0.561058 0.939992 0.435483
v 0.873558 0.877492 0.935483
v 0.873558 0.939992 0.935483
v 0.873558 0.877492 0.435483
v 0.873558 0.939992 0.435483
vt 0.101562 0.664062
vt 0.101562 0.656250
vt 0.164062 0.656250
vt 0.164062 0.664062
vt 0.101562 0.656250
vt 0.101562 0.664062
vt 0.062500 0.664062
vt 0.062500 0.656250
vt 0.000000 0.664062
vt -0.000000 0.656250
vt 0.062500 0.656250
vt 0.062500 0.664062
vt 0.164062 0.664062
vt 0.164062 0.656250
vt 0.203125 0.656250
vt 0.203125 0.664062
vt 0.140625 0.726562
vt 0.101562 0.726562
vt 0.101562 0.664062
vt 0.140625 0.664062
vt 0.101562 0.726562
vt 0.062500 0.726562
vn -1.0000 0.0000 0.0000
vn 0.0000 0.0000 -1.0000
vn 1.0000 0.0000 0.0000
vn 0.0000 0.0000 1.0000
vn 0.0000 -1.0000 0.0000
vn 0.0000 1.0000 0.0000
usemtl None
s off
f 1/1/1 2/2/1 4/3/1 3/4/1
f 3/5/2 4/6/2 8/7/2 7/8/2
f 7/9/3 8/10/3 6/11/3 5/12/3
f 5/13/4 6/14/4 2/15/4 1/16/4
f 3/17/5 7/18/5 5/19/5 1/20/5
f 8/7/6 4/6/6 2/21/6 6/22/6
v 0.317617 0.876692 0.908601
v 0.555368 0.876692 0.831309
v 0.201678 0.876692 0.551973
v 0.439430 0.876692 0.474681
vt 0.585938 1.000000
vt 0.554688 1.000000
vt 0.554688 0.953125
vt 0.585938 0.953125
vn 0.0000 1.0000 0.0000
usemtl None
s off
f 9/23/7 10/24/7 12/25/7 11/26/7
v 0.073579 0.876692 0.464030
v 0.312645 0.876692 0.537159
v 0.183273 0.876692 0.105432
v 0.422338 0.876692 0.178561
vt 0.585938 0.945312
vt 0.554688 0.945312
vt 0.554688 0.898438
vt 0.585938 0.898438
vn 0.0000 1.0000 0.0000
usemtl None
s off
f 13/27/8 14/28/8 16/29/8 15/30/8
v 0.547370 0.876692 0.457890
v 0.780748 0.876692 0.368255
v 0.412917 0.876692 0.107823
v 0.646295 0.876692 0.018187
vt 0.585938 0.890625
vt 0.554688 0.890625
vt 0.554688 0.843750
vt 0.585938 0.843750
vn 0.0000 1.0000 0.0000
usemtl None
s off
f 17/31/9 18/32/9 20/33/9 19/34/9
v 0.812500 -0.000000 0.187500
v 0.812500 0.812500 0.187500
v 0.812500 -0.000000 0.062500
v 0.812500 0.812500 0.062500
v 0.937500 -0.000000 0.187500
v 0.937500 0.812500 0.187500
v 0.937500 -0.000000 0.062500
v 0.937500 0.812500 0.062500
v 0.812500 -0.000000 0.187500
v 0.812500 0.812500 0.187500
v 0.812500 -0.000000 0.062500
v 0.812500 0.812500 0.062500
v 0.937500 -0.000000 0.187500
v 0.937500 0.812500 0.187500
v 0.937500 -0.000000 0.062500
v 0.937500 0.812500 0.062500
vt 0.085938 0.742188
vt 0.085938 0.843750
vt 0.070312 0.843750
vt 0.070312 0.742188
vt 0.085938 0.843750
vt 0.085938 0.742188
vt 0.101562 0.742188
vt 0.101562 0.843750
vt 0.117188 0.742188
vt 0.117188 0.843750
vt 0.132812 0.742188
vt 0.132812 0.843750
vt 0.085938 0.859375
vt 0.085938 0.843750
vt 0.101562 0.843750
vt 0.101562 0.859375
vt 0.101562 0.843750
vt 0.117188 0.843750
vt 0.117188 0.859375
vt 0.101562 0.859375
vt 0.085938 0.742188
vt 0.085938 0.843750
vt 0.070312 0.843750
vt 0.070312 0.742188
vt 0.085938 0.843750
vt 0.085938 0.742188
vt 0.101562 0.742188
vt 0.101562 0.843750
vt 0.117188 0.742188
vt 0.117188 0.843750
vt 0.132812 0.742188
vt 0.132812 0.843750
vt 0.085938 0.859375
vt 0.085938 0.843750
vt 0.101562 0.843750
vt 0.101562 0.859375
vt 0.101562 0.843750
vt 0.117188 0.843750
vt 0.117188 0.859375
vt 0.101562 0.859375
vn -1.0000 0.0000 0.0000
vn 0.0000 0.0000 -1.0000
vn 1.0000 0.0000 0.0000
vn 0.0000 0.0000 1.0000
vn 0.0000 -1.0000 0.0000
vn 0.0000 1.0000 0.0000
usemtl Material
s off
f 21/35/10 22/36/10 24/37/10 23/38/10
f 23/39/11 24/40/11 28/41/11 27/42/11
f 27/42/12 28/41/12 26/43/12 25/44/12
f 25/44/13 26/43/13 22/45/13 21/46/13
f 23/47/14 27/48/14 25/49/14 21/50/14
f 28/51/15 24/52/15 22/53/15 26/54/15
f 29/55/10 30/56/10 32/57/10 31/58/10
f 31/59/11 32/60/11 36/61/11 35/62/11
f 35/62/12 36/61/12 34/63/12 33/64/12
f 33/64/13 34/63/13 30/65/13 29/66/13
f 31/67/14 35/68/14 33/69/14 29/70/14
f 36/71/15 32/72/15 30/73/15 34/74/15
v 0.812500 0.000000 0.937500
v 0.812500 0.812500 0.937500
v 0.812500 0.000000 0.812500
v 0.812500 0.812500 0.812500
v 0.937500 0.000000 0.937500
v 0.937500 0.812500 0.937500
v 0.937500 0.000000 0.812500
v 0.937500 0.812500 0.812500
v 0.812500 0.000000 0.937500
v 0.812500 0.812500 0.937500
v 0.812500 0.000000 0.812500
v 0.812500 0.812500 0.812500
v 0.937500 0.000000 0.937500
v 0.937500 0.812500 0.937500
v 0.937500 0.000000 0.812500
v 0.937500 0.812500 0.812500
vt 0.226562 0.742188
vt 0.226562 0.843750
vt 0.210938 0.843750
vt 0.210938 0.742188
vt 0.226562 0.843750
vt 0.226562 0.742188
vt 0.242188 0.742188
vt 0.242188 0.843750
vt 0.257812 0.742188
vt 0.257812 0.843750
vt 0.273438 0.742188
vt 0.273438 0.843750
vt 0.226562 0.859375
vt 0.226562 0.843750
vt 0.242188 0.843750
vt 0.242188 0.859375
vt 0.242188 0.843750
vt 0.257812 0.843750
vt 0.257812 0.859375
vt 0.242188 0.859375
vt 0.226562 0.742188
vt 0.226562 0.843750
vt 0.210938 0.843750
vt 0.210938 0.742188
vt 0.226562 0.843750
vt 0.226562 0.742188
vt 0.242188 0.742188
vt 0.242188 0.843750
vt 0.257812 0.742188
vt 0.257812 0.843750
vt 0.273438 0.742188
vt 0.273438 0.843750
vt 0.226562 0.859375
vt 0.226562 0.843750
vt 0.242188 0.843750
vt 0.242188 0.859375
vt 0.242188 0.843750
vt 0.257812 0.843750
vt 0.257812 0.859375
vt 0.242188 0.859375
vn -1.0000 0.0000 0.0000
vn 0.0000 0.0000 -1.0000
vn 1.0000 0.0000 0.0000
vn 0.0000 0.0000 1.0000
vn 0.0000 -1.0000 0.0000
vn 0.0000 1.0000 0.0000
usemtl None
s off
f 37/75/16 38/76/16 40/77/16 39/78/16
f 39/79/17 40/80/17 44/81/17 43/82/17
f 43/82/18 44/81/18 42/83/18 41/84/18
f 41/84/19 42/83/19 38/85/19 37/86/19
f 39/87/20 43/88/20 41/89/20 37/90/20
f 44/91/21 40/92/21 38/93/21 42/94/21
f 45/95/16 46/96/16 48/97/16 47/98/16
f 47/99/17 48/100/17 52/101/17 51/102/17
f 51/102/18 52/101/18 50/103/18 49/104/18
f 49/104/19 50/103/19 46/105/19 45/106/19
f 47/107/20 51/108/20 49/109/20 45/110/20
f 52/111/21 48/112/21 46/113/21 50/114/21
v 0.062500 -0.000000 0.187500
v 0.062500 0.812500 0.187500
v 0.062500 -0.000000 0.062500
v 0.062500 0.812500 0.062500
v 0.187500 -0.000000 0.187500
v 0.187500 0.812500 0.187500
v 0.187500 -0.000000 0.062500
v 0.187500 0.812500 0.062500
v 0.062500 -0.000000 0.187500
v 0.062500 0.812500 0.187500
v 0.062500 -0.000000 0.062500
v 0.062500 0.812500 0.062500
v 0.187500 -0.000000 0.187500
v 0.187500 0.812500 0.187500
v 0.187500 -0.000000 0.062500
v 0.187500 0.812500 0.062500
vt 0.156250 0.742188
vt 0.156250 0.843750
vt 0.140625 0.843750
vt 0.140625 0.742188
vt 0.156250 0.843750
vt 0.156250 0.742188
vt 0.171875 0.742188
vt 0.171875 0.843750
vt 0.187500 0.742188
vt 0.187500 0.843750
vt 0.203125 0.742188
vt 0.203125 0.843750
vt 0.156250 0.859375
vt 0.156250 0.843750
vt 0.171875 0.843750
vt 0.171875 0.859375
vt 0.171875 0.843750
vt 0.187500 0.843750
vt 0.187500 0.859375
vt 0.171875 0.859375
vt 0.156250 0.742188
vt 0.156250 0.843750
vt 0.140625 0.843750
vt 0.140625 0.742188
vt 0.156250 0.843750
vt 0.156250 0.742188
vt 0.171875 0.742188
vt 0.171875 0.843750
vt 0.187500 0.742188
vt 0.187500 0.843750
vt 0.203125 0.742188
vt 0.203125 0.843750
vt 0.156250 0.859375
vt 0.156250 0.843750
vt 0.171875 0.843750
vt 0.171875 0.859375
vt 0.171875 0.843750
vt 0.187500 0.843750
vt 0.187500 0.859375
vt 0.171875 0.859375
vn -1.0000 0.0000 0.0000
vn 0.0000 0.0000 -1.0000
vn 1.0000 0.0000 0.0000
vn 0.0000 0.0000 1.0000
vn 0.0000 -1.0000 0.0000
vn 0.0000 1.0000 0.0000
usemtl None
s off
f 53/115/22 54/116/22 56/117/22 55/118/22
f 55/119/23 56/120/23 60/121/23 59/122/23
f 59/122/24 60/121/24 58/123/24 57/124/24
f 57/124/25 58/123/25 54/125/25 53/126/25
f 55/127/26 59/128/26 57/129/26 53/130/26
f 60/131/27 56/132/27 54/133/27 58/134/27
f 61/135/22 62/136/22 64/137/22 63/138/22
f 63/139/23 64/140/23 68/141/23 67/142/23
f 67/142/24 68/141/24 66/143/24 65/144/24
f 65/144/25 66/143/25 62/145/25 61/146/25
f 63/147/26 67/148/26 65/149/26 61/150/26
f 68/151/27 64/152/27 62/153/27 66/154/27
v 0.062500 0.000000 0.937500
v 0.062500 0.812500 0.937500
v 0.062500 0.000000 0.812500
v 0.062500 0.812500 0.812500
v 0.187500 0.000000 0.937500
v 0.187500 0.812500 0.937500
v 0.187500 0.000000 0.812500
v 0.187500 0.812500 0.812500
v 0.062500 0.000000 0.937500
v 0.062500 0.812500 0.937500
v 0.062500 0.000000 0.812500
v 0.062500 0.812500 0.812500
v 0.187500 0.000000 0.937500
v 0.187500 0.812500 0.937500
v 0.187500 0.000000 0.812500
v 0.187500 0.812500 0.812500
vt 0.015625 0.742188
vt 0.015625 0.843750
vt 0.000000 0.843750
vt 0.000000 0.742188
vt 0.015625 0.843750
vt 0.015625 0.742188
vt 0.031250 0.742188
vt 0.031250 0.843750
vt 0.046875 0.742188
vt 0.046875 0.843750
vt 0.062500 0.742188
vt 0.062500 0.843750
vt 0.015625 0.859375
vt 0.015625 0.843750
vt 0.031250 0.843750
vt 0.031250 0.859375
vt 0.031250 0.843750
vt 0.046875 0.843750
vt 0.046875 0.859375
vt 0.031250 0.859375
vt 0.015625 0.742188
vt 0.015625 0.843750
vt 0.000000 0.843750
vt 0.000000 0.742188
vt 0.015625 0.843750
vt 0.015625 0.742188
vt 0.031250 0.742188
vt 0.031250 0.843750
vt 0.046875 0.742188
vt 0.046875 0.843750
vt 0.062500 0.742188
vt 0.062500 0.843750
vt 0.015625 0.859375
vt 0.015625 0.843750
vt 0.031250 0.843750
vt 0.031250 0.859375
vt 0.031250 0.843750
vt 0.046875 0.843750
vt 0.046875 0.859375
vt 0.031250 0.859375
vn -1.0000 0.0000 0.0000
vn 0.0000 0.0000 -1.0000
vn 1.0000 0.0000 0.0000
vn 0.0000 0.0000 1.0000
vn 0.0000 -1.0000 0.0000
vn 0.0000 1.0000 0.0000
usemtl None
s off
f 69/155/28 70/156/28 72/157/28 71/158/28
f 71/159/29 72/160/29 76/161/29 75/162/29
f 75/162/30 76/161/30 74/163/30 73/164/30
f 73/164/31 74/163/31 70/165/31 69/166/31
f 71/167/32 75/168/32 73/169/32 69/170/32
f 76/171/33 72/172/33 70/173/33 74/174/33
f 77/175/28 78/176/28 80/177/28 79/178/28
f 79/179/29 80/180/29 84/181/29 83/182/29
f 83/182/30 84/181/30 82/183/30 81/184/30
f 81/184/31 82/183/31 78/185/31 77/186/31
f 79/187/32 83/188/32 81/189/32 77/190/32
f 84/191/33 80/192/33 78/193/33 82/194/33
v 1.000000 0.812500 0.000000
v 1.000000 0.812500 1.000000
v 0.000000 0.812500 1.000000
v 0.000000 0.812500 0.000000
v 1.000000 0.875000 0.000000
v 1.000000 0.875000 1.000000
v 0.000000 0.875000 1.000000
v 0.000000 0.875000 0.000000
vt 0.250000 0.875000
vt 0.250000 1.000000
vt 0.125000 1.000000
vt 0.125000 0.875000
vt 0.375000 1.000000
vt 0.250000 1.000000
vt 0.250000 0.875000
vt 0.375000 0.875000
vt 0.375000 0.867188
vt 0.375000 0.875000
vt 0.250000 0.875000
vt 0.250000 0.867188
vt 0.125000 0.875000
vt 0.125000 0.867188
vt 0.375000 0.875000
vt 0.375000 0.867188
vt 0.500000 0.867188
vt 0.500000 0.875000
vt 0.000000 0.875000
vt 0.000000 0.867188
vt 0.125000 0.867188
vt 0.125000 0.875000
vn 0.0000 -1.0000 -0.0000
vn 0.0000 1.0000 -0.0000
vn 1.0000 0.0000 0.0000
vn -0.0000 -0.0000 1.0000
vn -1.0000 -0.0000 -0.0000
vn 0.0000 0.0000 -1.0000
usemtl Material
s off
f 85/195/34 86/196/34 87/197/34 88/198/34
f 89/199/35 92/200/35 91/201/35 90/202/35
f 85/203/36 89/204/36 90/205/36 86/206/36
f 86/206/37 90/205/37 91/207/37 87/208/37
f 87/209/38 91/210/38 92/211/38 88/212/38
f 89/213/39 85/214/39 88/215/39 92/216/39
