# Blender v2.79 (sub 0) OBJ File: 'engineering_table.blend'
# www.blender.org
mtllib engineering_station.mtl
g Paper_Plane
v 0.202570 0.885000 -0.060926
v 0.939074 0.885000 -0.202570
v 0.060926 0.885000 -0.797430
v 0.797430 0.885000 -0.939074
vt 0.601562 0.906250
vt 0.695312 0.906250
vt 0.695312 1.000000
vt 0.601562 1.000000
vn 0.0000 1.0000 0.0000
usemtl Material
s off
f 1/1/1 2/2/1 4/3/1 3/4/1
g Cube.005_Cube.011
v 0.694182 0.928263 -0.097009
v 0.690925 0.990258 -0.104237
v 0.918188 0.872316 -0.677799
v 0.914931 0.934311 -0.685027
v 0.752439 0.933880 -0.075081
v 0.749182 0.995875 -0.082309
v 0.976445 0.877933 -0.655871
v 0.973188 0.939928 -0.663099
vt 0.421875 0.781250
vt 0.421875 0.773438
vt 0.500000 0.773438
vt 0.500000 0.781250
vt 0.414062 0.781250
vt 0.414062 0.773438
vt 0.421875 0.773438
vt 0.421875 0.781250
vt 0.414062 0.773438
vt 0.414062 0.781250
vt 0.335938 0.781250
vt 0.335938 0.773438
vt 0.507812 0.773438
vt 0.507812 0.781250
vt 0.500000 0.781250
vt 0.500000 0.773438
vt 0.421875 0.781250
vt 0.429688 0.781250
vt 0.429688 0.859375
vt 0.421875 0.859375
vt 0.421875 0.781250
vt 0.421875 0.859375
vt 0.414062 0.859375
vn -0.9321 -0.0899 -0.3508
vn 0.3584 -0.0895 -0.9293
vn 0.9321 0.0899 0.3508
vn -0.3584 0.0895 0.9293
vn 0.0521 -0.9919 0.1157
vn -0.0521 0.9919 -0.1157
usemtl Material
s off
f 5/5/2 6/6/2 8/7/2 7/8/2
f 7/9/3 8/10/3 12/11/3 11/12/3
f 11/13/4 12/14/4 10/15/4 9/16/4
f 9/17/5 10/18/5 6/19/5 5/20/5
f 7/21/6 11/22/6 9/23/6 5/24/6
f 12/14/7 8/25/7 6/26/7 10/27/7
g Cube.004_Cube.010
v 0.548793 0.883723 -0.143289
v 0.542279 1.007714 -0.157746
v 0.593594 0.872534 -0.259447
v 0.587080 0.996524 -0.273903
v 0.607050 0.889341 -0.121361
v 0.600536 1.013331 -0.135818
v 0.651851 0.878152 -0.237519
v 0.645337 1.002142 -0.251975
vt 0.304688 0.742188
vt 0.304688 0.726562
vt 0.320312 0.726562
vt 0.320312 0.742188
vt 0.296875 0.726562
vt 0.304688 0.726562
vt 0.304688 0.742188
vt 0.296875 0.742188
vt 0.296875 0.726562
vt 0.296875 0.742188
vt 0.281250 0.742188
vt 0.281250 0.726562
vt 0.328125 0.726562
vt 0.328125 0.742188
vt 0.320312 0.742188
vt 0.320312 0.726562
vt 0.304688 0.742188
vt 0.312500 0.742188
vt 0.312500 0.757812
vt 0.304688 0.757812
vt 0.304688 0.742188
vt 0.304688 0.757812
vt 0.296875 0.757812
vn -0.9321 -0.0899 -0.3508
vn 0.3584 -0.0895 -0.9293
vn 0.9321 0.0899 0.3508
vn -0.3584 0.0895 0.9293
vn 0.0521 -0.9919 0.1157
vn -0.0521 0.9919 -0.1157
usemtl Material
s off
f 13/28/8 14/29/8 16/30/8 15/31/8
f 15/32/9 16/33/9 20/34/9 19/35/9
f 19/36/10 20/37/10 18/38/10 17/39/10
f 17/40/11 18/41/11 14/42/11 13/43/11
f 15/44/12 19/45/12 17/46/12 13/47/12
f 20/37/13 16/48/13 14/49/13 18/50/13
g Cube.003_Cube.009
v 0.616341 0.917514 -0.154121
v 0.613083 0.979509 -0.161349
v 0.638741 0.911919 -0.212200
v 0.635484 0.973914 -0.219428
v 0.674597 0.923131 -0.132193
v 0.671340 0.985126 -0.139421
v 0.696998 0.917537 -0.190271
v 0.693741 0.979532 -0.197500
vt 0.304688 0.773438
vt 0.304688 0.765625
vt 0.312500 0.765625
vt 0.312500 0.773438
vt 0.281250 0.773438
vt 0.281250 0.765625
vt 0.289062 0.765625
vt 0.289062 0.773438
vt 0.304688 0.765625
vt 0.304688 0.773438
vt 0.296875 0.773438
vt 0.296875 0.765625
vt 0.289062 0.773438
vt 0.289062 0.765625
vt 0.304688 0.781250
vt 0.296875 0.781250
vt 0.296875 0.773438
vt 0.296875 0.781250
vt 0.289062 0.781250
vn -0.9321 -0.0899 -0.3508
vn 0.3584 -0.0895 -0.9293
vn 0.9321 0.0899 0.3508
vn -0.3584 0.0895 0.9293
vn 0.0521 -0.9919 0.1157
vn -0.0521 0.9919 -0.1157
usemtl Material
s off
f 21/51/14 22/52/14 24/53/14 23/54/14
f 23/55/15 24/56/15 28/57/15 27/58/15
f 27/59/16 28/60/16 26/61/16 25/62/16
f 25/62/17 26/61/17 22/63/17 21/64/17
f 23/65/18 27/66/18 25/67/18 21/51/18
f 28/68/19 24/69/19 22/63/19 26/61/19
g Cube.002_Cube.008
v 0.788749 0.986743 -0.094700
v 0.785492 1.048738 -0.101928
v 0.789191 0.979528 -0.156780
v 0.785934 1.041523 -0.164009
v 0.913576 0.993316 -0.094574
v 0.910319 1.055311 -0.101803
v 0.914018 0.986101 -0.156655
v 0.910761 1.048096 -0.163883
vt 0.320312 0.820312
vt 0.320312 0.812500
vt 0.328125 0.812500
vt 0.328125 0.820312
vt 0.304688 0.820312
vt 0.304688 0.812500
vt 0.320312 0.812500
vt 0.320312 0.820312
vt 0.304688 0.812500
vt 0.304688 0.820312
vt 0.296875 0.820312
vt 0.296875 0.812500
vt 0.281250 0.820312
vt 0.281250 0.812500
vt 0.320312 0.828125
vt 0.304688 0.828125
vt 0.304688 0.820312
vt 0.304688 0.828125
vt 0.289062 0.828125
vt 0.289062 0.820312
vt 0.304688 0.820312
vn -0.9986 -0.0526 -0.0010
vn 0.0071 -0.1154 -0.9933
vn 0.9986 0.0526 0.0010
vn -0.0071 0.1154 0.9933
vn 0.0521 -0.9919 0.1157
vn -0.0521 0.9919 -0.1157
usemtl Material
s off
f 29/70/20 30/71/20 32/72/20 31/73/20
f 31/74/21 32/75/21 36/76/21 35/77/21
f 35/78/22 36/79/22 34/80/22 33/81/22
f 33/81/23 34/80/23 30/82/23 29/83/23
f 31/84/24 35/85/24 33/86/24 29/70/24
f 36/87/25 32/88/25 30/89/25 34/90/25
g Cube.001_Cube.006
v 0.794447 0.878299 -0.082056
v 0.791189 0.940294 -0.089284
v 0.794889 0.871084 -0.144137
v 0.791632 0.933079 -0.151365
v 0.919274 0.884872 -0.081931
v 0.916016 0.946867 -0.089159
v 0.919716 0.877657 -0.144011
v 0.916459 0.939652 -0.151239
vt 0.320312 0.796875
vt 0.320312 0.789062
vt 0.328125 0.789062
vt 0.328125 0.796875
vt 0.304688 0.796875
vt 0.304688 0.789062
vt 0.320312 0.789062
vt 0.320312 0.796875
vt 0.304688 0.789062
vt 0.304688 0.796875
vt 0.296875 0.796875
vt 0.296875 0.789062
vt 0.281250 0.796875
vt 0.281250 0.789062
vt 0.320312 0.804688
vt 0.304688 0.804688
vt 0.304688 0.796875
vt 0.304688 0.804688
vt 0.289062 0.804688
vt 0.289062 0.796875
vt 0.304688 0.796875
vn -0.9986 -0.0526 -0.0010
vn 0.0071 -0.1154 -0.9933
vn 0.9986 0.0526 0.0010
vn -0.0071 0.1154 0.9933
vn 0.0521 -0.9919 0.1157
vn -0.0521 0.9919 -0.1157
usemtl Material
s off
f 37/91/26 38/92/26 40/93/26 39/94/26
f 39/95/27 40/96/27 44/97/27 43/98/27
f 43/99/28 44/100/28 42/101/28 41/102/28
f 41/102/29 42/101/29 38/103/29 37/104/29
f 39/105/30 43/106/30 41/107/30 37/91/30
f 44/108/31 40/109/31 38/110/31 42/111/31
g Cube_Cube.005
v 0.676049 0.892117 -0.128645
v 0.669535 1.016107 -0.143101
v 0.698450 0.886522 -0.186724
v 0.691936 1.010512 -0.201180
v 0.792563 0.903352 -0.084789
v 0.786049 1.027342 -0.099245
v 0.814964 0.897757 -0.142868
v 0.808449 1.021747 -0.157324
vt 0.312500 0.835938
vt 0.312500 0.851562
vt 0.304688 0.851562
vt 0.304688 0.835938
vt 0.281250 0.851562
vt 0.281250 0.843750
vt 0.296875 0.843750
vt 0.296875 0.851562
vt 0.304688 0.835938
vt 0.304688 0.851562
vt 0.296875 0.851562
vt 0.296875 0.835938
vt 0.304688 0.851562
vt 0.304688 0.859375
vt 0.289062 0.859375
vt 0.289062 0.851562
vt 0.312500 0.851562
vt 0.312500 0.835938
vt 0.320312 0.835938
vt 0.320312 0.851562
vt 0.320312 0.859375
vt 0.304688 0.859375
vt 0.304688 0.851562
vt 0.320312 0.851562
vn -0.9321 -0.0899 -0.3508
vn 0.3584 -0.0895 -0.9293
vn 0.9321 0.0899 0.3508
vn -0.3584 0.0895 0.9293
vn 0.0521 -0.9919 0.1157
vn -0.0521 0.9919 -0.1157
usemtl Material
s off
f 45/112/32 46/113/32 48/114/32 47/115/32
f 47/116/33 48/117/33 52/118/33 51/119/33
f 51/120/34 52/121/34 50/122/34 49/123/34
f 49/124/35 50/125/35 46/126/35 45/127/35
f 47/128/36 51/129/36 49/130/36 45/131/36
f 52/132/37 48/133/37 46/134/37 50/135/37
g Leg_4_Cube.004
v 0.812500 -0.000000 -0.812500
v 0.812500 0.812500 -0.812500
v 0.812500 -0.000000 -0.937500
v 0.812500 0.812500 -0.937500
v 0.937500 -0.000000 -0.812500
v 0.937500 0.812500 -0.812500
v 0.937500 -0.000000 -0.937500
v 0.937500 0.812500 -0.937500
v 0.812500 -0.000000 -0.812500
v 0.812500 0.812500 -0.812500
v 0.812500 -0.000000 -0.937500
v 0.812500 0.812500 -0.937500
v 0.937500 -0.000000 -0.812500
v 0.937500 0.812500 -0.812500
v 0.937500 -0.000000 -0.937500
v 0.937500 0.812500 -0.937500
vt 0.085938 0.742188
vt 0.085938 0.843750
vt 0.070312 0.843750
vt 0.070312 0.742188
vt 0.085938 0.843750
vt 0.085938 0.742188
vt 0.101562 0.742188
vt 0.101562 0.843750
vt 0.117188 0.742188
vt 0.117188 0.843750
vt 0.132812 0.742188
vt 0.132812 0.843750
vt 0.085938 0.859375
vt 0.085938 0.843750
vt 0.101562 0.843750
vt 0.101562 0.859375
vt 0.101562 0.843750
vt 0.117188 0.843750
vt 0.117188 0.859375
vt 0.101562 0.859375
vt 0.085938 0.742188
vt 0.085938 0.843750
vt 0.070312 0.843750
vt 0.070312 0.742188
vt 0.085938 0.843750
vt 0.085938 0.742188
vt 0.101562 0.742188
vt 0.101562 0.843750
vt 0.117188 0.742188
vt 0.117188 0.843750
vt 0.132812 0.742188
vt 0.132812 0.843750
vt 0.085938 0.859375
vt 0.085938 0.843750
vt 0.101562 0.843750
vt 0.101562 0.859375
vt 0.101562 0.843750
vt 0.117188 0.843750
vt 0.117188 0.859375
vt 0.101562 0.859375
vn -1.0000 0.0000 0.0000
vn 0.0000 0.0000 -1.0000
vn 1.0000 0.0000 0.0000
vn 0.0000 0.0000 1.0000
vn 0.0000 -1.0000 0.0000
vn 0.0000 1.0000 0.0000
usemtl Material
s off
f 53/136/38 54/137/38 56/138/38 55/139/38
f 55/140/39 56/141/39 60/142/39 59/143/39
f 59/143/40 60/142/40 58/144/40 57/145/40
f 57/145/41 58/144/41 54/146/41 53/147/41
f 55/148/42 59/149/42 57/150/42 53/151/42
f 60/152/43 56/153/43 54/154/43 58/155/43
f 61/156/38 62/157/38 64/158/38 63/159/38
f 63/160/39 64/161/39 68/162/39 67/163/39
f 67/163/40 68/162/40 66/164/40 65/165/40
f 65/165/41 66/164/41 62/166/41 61/167/41
f 63/168/42 67/169/42 65/170/42 61/171/42
f 68/172/43 64/173/43 62/174/43 66/175/43
g Leg_3_Cube.003
v 0.812500 0.000000 -0.062500
v 0.812500 0.812500 -0.062500
v 0.812500 0.000000 -0.187500
v 0.812500 0.812500 -0.187500
v 0.937500 0.000000 -0.062500
v 0.937500 0.812500 -0.062500
v 0.937500 0.000000 -0.187500
v 0.937500 0.812500 -0.187500
v 0.812500 0.000000 -0.062500
v 0.812500 0.812500 -0.062500
v 0.812500 0.000000 -0.187500
v 0.812500 0.812500 -0.187500
v 0.937500 0.000000 -0.062500
v 0.937500 0.812500 -0.062500
v 0.937500 0.000000 -0.187500
v 0.937500 0.812500 -0.187500
vt 0.226562 0.742188
vt 0.226562 0.843750
vt 0.210938 0.843750
vt 0.210938 0.742188
vt 0.226562 0.843750
vt 0.226562 0.742188
vt 0.242188 0.742188
vt 0.242188 0.843750
vt 0.257812 0.742188
vt 0.257812 0.843750
vt 0.273438 0.742188
vt 0.273438 0.843750
vt 0.226562 0.859375
vt 0.226562 0.843750
vt 0.242188 0.843750
vt 0.242188 0.859375
vt 0.242188 0.843750
vt 0.257812 0.843750
vt 0.257812 0.859375
vt 0.242188 0.859375
vt 0.226562 0.742188
vt 0.226562 0.843750
vt 0.210938 0.843750
vt 0.210938 0.742188
vt 0.226562 0.843750
vt 0.226562 0.742188
vt 0.242188 0.742188
vt 0.242188 0.843750
vt 0.257812 0.742188
vt 0.257812 0.843750
vt 0.273438 0.742188
vt 0.273438 0.843750
vt 0.226562 0.859375
vt 0.226562 0.843750
vt 0.242188 0.843750
vt 0.242188 0.859375
vt 0.242188 0.843750
vt 0.257812 0.843750
vt 0.257812 0.859375
vt 0.242188 0.859375
vn -1.0000 0.0000 0.0000
vn 0.0000 0.0000 -1.0000
vn 1.0000 0.0000 0.0000
vn 0.0000 0.0000 1.0000
vn 0.0000 -1.0000 0.0000
vn 0.0000 1.0000 0.0000
usemtl Material
s off
f 69/176/44 70/177/44 72/178/44 71/179/44
f 71/180/45 72/181/45 76/182/45 75/183/45
f 75/183/46 76/182/46 74/184/46 73/185/46
f 73/185/47 74/184/47 70/186/47 69/187/47
f 71/188/48 75/189/48 73/190/48 69/191/48
f 76/192/49 72/193/49 70/194/49 74/195/49
f 77/196/44 78/197/44 80/198/44 79/199/44
f 79/200/45 80/201/45 84/202/45 83/203/45
f 83/203/46 84/202/46 82/204/46 81/205/46
f 81/205/47 82/204/47 78/206/47 77/207/47
f 79/208/48 83/209/48 81/210/48 77/211/48
f 84/212/49 80/213/49 78/214/49 82/215/49
g Leg_2_Cube.002
v 0.062500 -0.000000 -0.812500
v 0.062500 0.812500 -0.812500
v 0.062500 -0.000000 -0.937500
v 0.062500 0.812500 -0.937500
v 0.187500 -0.000000 -0.812500
v 0.187500 0.812500 -0.812500
v 0.187500 -0.000000 -0.937500
v 0.187500 0.812500 -0.937500
v 0.062500 -0.000000 -0.812500
v 0.062500 0.812500 -0.812500
v 0.062500 -0.000000 -0.937500
v 0.062500 0.812500 -0.937500
v 0.187500 -0.000000 -0.812500
v 0.187500 0.812500 -0.812500
v 0.187500 -0.000000 -0.937500
v 0.187500 0.812500 -0.937500
vt 0.156250 0.742188
vt 0.156250 0.843750
vt 0.140625 0.843750
vt 0.140625 0.742188
vt 0.156250 0.843750
vt 0.156250 0.742188
vt 0.171875 0.742188
vt 0.171875 0.843750
vt 0.187500 0.742188
vt 0.187500 0.843750
vt 0.203125 0.742188
vt 0.203125 0.843750
vt 0.156250 0.859375
vt 0.156250 0.843750
vt 0.171875 0.843750
vt 0.171875 0.859375
vt 0.171875 0.843750
vt 0.187500 0.843750
vt 0.187500 0.859375
vt 0.171875 0.859375
vt 0.156250 0.742188
vt 0.156250 0.843750
vt 0.140625 0.843750
vt 0.140625 0.742188
vt 0.156250 0.843750
vt 0.156250 0.742188
vt 0.171875 0.742188
vt 0.171875 0.843750
vt 0.187500 0.742188
vt 0.187500 0.843750
vt 0.203125 0.742188
vt 0.203125 0.843750
vt 0.156250 0.859375
vt 0.156250 0.843750
vt 0.171875 0.843750
vt 0.171875 0.859375
vt 0.171875 0.843750
vt 0.187500 0.843750
vt 0.187500 0.859375
vt 0.171875 0.859375
vn -1.0000 0.0000 0.0000
vn 0.0000 0.0000 -1.0000
vn 1.0000 0.0000 0.0000
vn 0.0000 0.0000 1.0000
vn 0.0000 -1.0000 0.0000
vn 0.0000 1.0000 0.0000
usemtl Material
s off
f 85/216/50 86/217/50 88/218/50 87/219/50
f 87/220/51 88/221/51 92/222/51 91/223/51
f 91/223/52 92/222/52 90/224/52 89/225/52
f 89/225/53 90/224/53 86/226/53 85/227/53
f 87/228/54 91/229/54 89/230/54 85/231/54
f 92/232/55 88/233/55 86/234/55 90/235/55
f 93/236/50 94/237/50 96/238/50 95/239/50
f 95/240/51 96/241/51 100/242/51 99/243/51
f 99/243/52 100/242/52 98/244/52 97/245/52
f 97/245/53 98/244/53 94/246/53 93/247/53
f 95/248/54 99/249/54 97/250/54 93/251/54
f 100/252/55 96/253/55 94/254/55 98/255/55
g Leg_1_Cube.001
v 0.062500 0.000000 -0.062500
v 0.062500 0.812500 -0.062500
v 0.062500 0.000000 -0.187500
v 0.062500 0.812500 -0.187500
v 0.187500 0.000000 -0.062500
v 0.187500 0.812500 -0.062500
v 0.187500 0.000000 -0.187500
v 0.187500 0.812500 -0.187500
v 0.062500 0.000000 -0.062500
v 0.062500 0.812500 -0.062500
v 0.062500 0.000000 -0.187500
v 0.062500 0.812500 -0.187500
v 0.187500 0.000000 -0.062500
v 0.187500 0.812500 -0.062500
v 0.187500 0.000000 -0.187500
v 0.187500 0.812500 -0.187500
vt 0.015625 0.742188
vt 0.015625 0.843750
vt 0.000000 0.843750
vt 0.000000 0.742188
vt 0.015625 0.843750
vt 0.015625 0.742188
vt 0.031250 0.742188
vt 0.031250 0.843750
vt 0.046875 0.742188
vt 0.046875 0.843750
vt 0.062500 0.742188
vt 0.062500 0.843750
vt 0.015625 0.859375
vt 0.015625 0.843750
vt 0.031250 0.843750
vt 0.031250 0.859375
vt 0.031250 0.843750
vt 0.046875 0.843750
vt 0.046875 0.859375
vt 0.031250 0.859375
vt 0.015625 0.742188
vt 0.015625 0.843750
vt 0.000000 0.843750
vt 0.000000 0.742188
vt 0.015625 0.843750
vt 0.015625 0.742188
vt 0.031250 0.742188
vt 0.031250 0.843750
vt 0.046875 0.742188
vt 0.046875 0.843750
vt 0.062500 0.742188
vt 0.062500 0.843750
vt 0.015625 0.859375
vt 0.015625 0.843750
vt 0.031250 0.843750
vt 0.031250 0.859375
vt 0.031250 0.843750
vt 0.046875 0.843750
vt 0.046875 0.859375
vt 0.031250 0.859375
vn -1.0000 0.0000 0.0000
vn 0.0000 0.0000 -1.0000
vn 1.0000 0.0000 0.0000
vn 0.0000 0.0000 1.0000
vn 0.0000 -1.0000 0.0000
vn 0.0000 1.0000 0.0000
usemtl Material
s off
f 101/256/56 102/257/56 104/258/56 103/259/56
f 103/260/57 104/261/57 108/262/57 107/263/57
f 107/263/58 108/262/58 106/264/58 105/265/58
f 105/265/59 106/264/59 102/266/59 101/267/59
f 103/268/60 107/269/60 105/270/60 101/271/60
f 108/272/61 104/273/61 102/274/61 106/275/61
f 109/276/56 110/277/56 112/278/56 111/279/56
f 111/280/57 112/281/57 116/282/57 115/283/57
f 115/283/58 116/282/58 114/284/58 113/285/58
f 113/285/59 114/284/59 110/286/59 109/287/59
f 111/288/60 115/289/60 113/290/60 109/291/60
f 116/292/61 112/293/61 110/294/61 114/295/61
g Top_Cube
v 1.000000 0.812500 -1.000000
v 1.000000 0.812500 -0.000000
v 0.000000 0.812500 -0.000000
v 0.000000 0.812500 -1.000000
v 1.000000 0.875000 -1.000000
v 1.000000 0.875000 0.000000
v 0.000000 0.875000 -0.000000
v 0.000000 0.875000 -1.000000
vt 0.250000 0.875000
vt 0.250000 1.000000
vt 0.125000 1.000000
vt 0.125000 0.875000
vt 0.375000 1.000000
vt 0.250000 1.000000
vt 0.250000 0.875000
vt 0.375000 0.875000
vt 0.375000 0.867188
vt 0.375000 0.875000
vt 0.250000 0.875000
vt 0.250000 0.867188
vt 0.125000 0.875000
vt 0.125000 0.867188
vt 0.375000 0.875000
vt 0.375000 0.867188
vt 0.500000 0.867188
vt 0.500000 0.875000
vt 0.000000 0.875000
vt 0.000000 0.867188
vt 0.125000 0.867188
vt 0.125000 0.875000
vn 0.0000 -1.0000 -0.0000
vn 0.0000 1.0000 -0.0000
vn 1.0000 0.0000 0.0000
vn -0.0000 -0.0000 1.0000
vn -1.0000 -0.0000 -0.0000
vn 0.0000 0.0000 -1.0000
usemtl Material
s off
f 117/296/62 118/297/62 119/298/62 120/299/62
f 121/300/63 124/301/63 123/302/63 122/303/63
f 117/304/64 121/305/64 122/306/64 118/307/64
f 118/307/65 122/306/65 123/308/65 119/309/65
f 119/310/66 123/311/66 124/312/66 120/313/66
f 121/314/67 117/315/67 120/316/67 124/317/67
